<?xml version="1.0" encoding="UTF-8"?>
<!--Generator: Apple Native CoreSVG 175.5-->
<!DOCTYPE svg
PUBLIC "-//W3C//DTD SVG 1.1//EN"
       "http://www.w3.org/Graphics/SVG/1.1/DTD/svg11.dtd">
<svg version="1.1" xmlns="http://www.w3.org/2000/svg" xmlns:xlink="http://www.w3.org/1999/xlink" width="341.211" height="368.164">
 <g>
  <rect height="368.164" opacity="0" width="341.211" x="0" y="0"/>
  <path d="M47.8516 368.164L293.359 368.164C325.781 368.164 341.211 358.398 341.211 336.914C341.211 285.742 276.562 211.719 170.703 211.719C64.6484 211.719 0 285.742 0 336.914C0 358.398 15.4297 368.164 47.8516 368.164ZM38.6719 338.672C33.5938 338.672 31.4453 337.305 31.4453 333.203C31.4453 301.172 81.0547 241.211 170.703 241.211C260.156 241.211 309.766 301.172 309.766 333.203C309.766 337.305 307.812 338.672 302.734 338.672ZM170.703 187.5C217.188 187.5 255.078 146.094 255.078 95.7031C255.078 45.7031 217.383 6.44531 170.703 6.44531C124.414 6.44531 86.3281 46.4844 86.3281 96.0938C86.5234 146.289 124.219 187.5 170.703 187.5ZM170.703 158.008C142.188 158.008 117.773 130.664 117.773 96.0938C117.773 62.1094 141.797 35.9375 170.703 35.9375C199.805 35.9375 223.633 61.7188 223.633 95.7031C223.633 130.273 199.414 158.008 170.703 158.008Z" fill="#0a84ff"/>
 </g>
</svg>
