<?xml version="1.0" encoding="UTF-8"?>
<!--Generator: Apple Native CoreSVG 175.5-->
<!DOCTYPE svg
PUBLIC "-//W3C//DTD SVG 1.1//EN"
       "http://www.w3.org/Graphics/SVG/1.1/DTD/svg11.dtd">
<svg version="1.1" xmlns="http://www.w3.org/2000/svg" xmlns:xlink="http://www.w3.org/1999/xlink" width="261.133" height="489.258">
 <g>
  <rect height="489.258" opacity="0" width="261.133" x="0" y="0"/>
  <path d="M116.992 481.25C125.195 488.086 136.328 489.062 144.141 481.445L204.492 421.094C212.109 413.281 211.719 401.562 204.297 393.945L174.023 363.867L218.164 319.922C225.781 312.5 225.391 300.586 217.969 292.773L177.148 251.758C230.859 225.977 261.133 182.227 261.133 130.273C261.133 58.2031 202.734 0 130.664 0C58.0078 0 0 57.8125 0 130.273C0 182.617 30.0781 229.102 77.5391 250L77.5391 434.375C77.5391 440.82 79.4922 448.242 85.1562 453.32ZM130.664 450.391L108.984 428.906L108.984 227.344C63.0859 216.992 31.25 177.344 31.25 130.273C31.25 75.5859 75.5859 31.4453 130.664 31.4453C185.547 31.4453 229.688 75.5859 229.688 130.273C229.688 176.953 197.656 216.992 148.633 228.711L148.633 268.164L186.914 306.641L145.508 347.461L145.508 379.883L173.242 407.227ZM130.664 124.414C148.047 124.414 162.305 110.156 162.305 92.5781C162.305 75.1953 148.047 61.1328 130.664 61.1328C112.891 61.1328 99.0234 75.1953 99.0234 92.5781C99.0234 110.156 113.086 124.414 130.664 124.414Z" fill="#0a84ff"/>
 </g>
</svg>
